<svg width="61" height="37" viewBox="0 0 61 37" fill="none" xmlns="http://www.w3.org/2000/svg">
<rect opacity="0.6" width="61" height="37" rx="15" fill="#C6C9F8"/>
<path opacity="0.3" d="M12.7539 18.765C12.7539 17.745 12.9839 16.83 13.4439 16.02C13.9039 15.2 14.5289 14.56 15.3189 14.1C16.1189 13.64 17.0039 13.41 17.9739 13.41C19.1139 13.41 20.1089 13.685 20.9589 14.235C21.8089 14.785 22.4289 15.565 22.8189 16.575H21.1839C20.8939 15.945 20.4739 15.46 19.9239 15.12C19.3839 14.78 18.7339 14.61 17.9739 14.61C17.2439 14.61 16.5889 14.78 16.0089 15.12C15.4289 15.46 14.9739 15.945 14.6439 16.575C14.3139 17.195 14.1489 17.925 14.1489 18.765C14.1489 19.595 14.3139 20.325 14.6439 20.955C14.9739 21.575 15.4289 22.055 16.0089 22.395C16.5889 22.735 17.2439 22.905 17.9739 22.905C18.7339 22.905 19.3839 22.74 19.9239 22.41C20.4739 22.07 20.8939 21.585 21.1839 20.955H22.8189C22.4289 21.955 21.8089 22.73 20.9589 23.28C20.1089 23.82 19.1139 24.09 17.9739 24.09C17.0039 24.09 16.1189 23.865 15.3189 23.415C14.5289 22.955 13.9039 22.32 13.4439 21.51C12.9839 20.7 12.7539 19.785 12.7539 18.765ZM28.9308 15.63C29.5508 15.63 30.1108 15.765 30.6108 16.035C31.1108 16.295 31.5008 16.69 31.7808 17.22C32.0708 17.75 32.2158 18.395 32.2158 19.155V24H30.8658V19.35C30.8658 18.53 30.6608 17.905 30.2508 17.475C29.8408 17.035 29.2808 16.815 28.5708 16.815C27.8508 16.815 27.2758 17.04 26.8458 17.49C26.4258 17.94 26.2158 18.595 26.2158 19.455V24H24.8508V12.9H26.2158V16.95C26.4858 16.53 26.8558 16.205 27.3258 15.975C27.8058 15.745 28.3408 15.63 28.9308 15.63ZM33.9355 19.86C33.9355 19.02 34.1055 18.285 34.4455 17.655C34.7855 17.015 35.2505 16.52 35.8405 16.17C36.4405 15.82 37.1055 15.645 37.8355 15.645C38.5555 15.645 39.1805 15.8 39.7105 16.11C40.2405 16.42 40.6355 16.81 40.8955 17.28V15.78H42.2755V24H40.8955V22.47C40.6255 22.95 40.2205 23.35 39.6805 23.67C39.1505 23.98 38.5305 24.135 37.8205 24.135C37.0905 24.135 36.4305 23.955 35.8405 23.595C35.2505 23.235 34.7855 22.73 34.4455 22.08C34.1055 21.43 33.9355 20.69 33.9355 19.86ZM40.8955 19.875C40.8955 19.255 40.7705 18.715 40.5205 18.255C40.2705 17.795 39.9305 17.445 39.5005 17.205C39.0805 16.955 38.6155 16.83 38.1055 16.83C37.5955 16.83 37.1305 16.95 36.7105 17.19C36.2905 17.43 35.9555 17.78 35.7055 18.24C35.4555 18.7 35.3305 19.24 35.3305 19.86C35.3305 20.49 35.4555 21.04 35.7055 21.51C35.9555 21.97 36.2905 22.325 36.7105 22.575C37.1305 22.815 37.5955 22.935 38.1055 22.935C38.6155 22.935 39.0805 22.815 39.5005 22.575C39.9305 22.325 40.2705 21.97 40.5205 21.51C40.7705 21.04 40.8955 20.495 40.8955 19.875ZM46.2472 16.905V21.75C46.2472 22.15 46.3322 22.435 46.5022 22.605C46.6722 22.765 46.9672 22.845 47.3872 22.845H48.3922V24H47.1622C46.4022 24 45.8322 23.825 45.4522 23.475C45.0722 23.125 44.8822 22.55 44.8822 21.75V16.905H43.8172V15.78H44.8822V13.71H46.2472V15.78H48.3922V16.905H46.2472Z" fill="#101010"/>
</svg>
